<svg width="4322" height="1424" xmlns="http://www.w3.org/2000/svg" xmlns:xlink="http://www.w3.org/1999/xlink" overflow="hidden"><defs><clipPath id="clip0"><rect x="39" y="317" width="4322" height="1424"/></clipPath></defs><g clip-path="url(#clip0)" transform="translate(-39 -317)"><rect x="38.9998" y="317" width="4322" height="1424" fill="#F2F2F2"/><rect x="424" y="555" width="3114" height="55.9997" fill="#57AAF2"/><rect x="3538" y="555" width="444" height="55.9997" fill="#F2C48D"/><text fill="#57AAF2" font-family="Oswald,Oswald_MSFontService,sans-serif" font-weight="400" font-size="83" transform="matrix(1 0 0 1 117.948 610)">trajectory</text><path d="M709 513 709.001 646.289" stroke="#000000" stroke-width="13.75" stroke-miterlimit="8" fill="none" fill-rule="evenodd"/><text font-family="Oswald,Oswald_MSFontService,sans-serif" font-weight="400" font-size="83" transform="matrix(1 0 0 1 695.72 483)">checkpoint</text><path d="M2102 512 2102 645.289" stroke="#000000" stroke-width="13.75" stroke-miterlimit="8" fill="none" fill-rule="evenodd"/><text font-family="Oswald,Oswald_MSFontService,sans-serif" font-weight="400" font-size="83" transform="matrix(1 0 0 1 2088.38 481)">checkpoin<tspan font-size="83" x="301.354" y="0">t</tspan></text><path d="M3540 512 3540 645.289" stroke="#000000" stroke-width="13.75" stroke-miterlimit="8" fill="none" fill-rule="evenodd"/><text font-family="Oswald,Oswald_MSFontService,sans-serif" font-weight="400" font-size="83" transform="matrix(1 0 0 1 3526.46 481)">checkpoin<tspan font-size="83" x="301.354" y="0">t</tspan></text><path d="M3874.95 534.895 3919.08 486.643 3976 538.698 4032.92 486.643 4077.05 534.895 4024.44 583 4077.05 631.105 4032.92 679.357 3976 627.302 3919.08 679.357 3874.95 631.105 3927.55 583Z" fill="#F25749" fill-rule="evenodd"/><text fill="#F25749" font-family="Oswald,Oswald_MSFontService,sans-serif" font-weight="400" font-size="83" transform="matrix(1 0 0 1 3645.02 769)">time <tspan font-size="83" x="154.115" y="0">limit</tspan><tspan font-size="83" x="311.094" y="0">terminatio</tspan><tspan font-size="83" x="622.76" y="0">n</tspan></text><rect x="424" y="1048" width="1676" height="55" fill="#57AAF2"/><rect x="2942" y="1048" width="445" height="55" fill="#F2C48D"/><text fill="#57AAF2" font-family="Oswald,Oswald_MSFontService,sans-serif" font-weight="400" font-size="83" transform="matrix(1 0 0 1 117.948 1103)">trajectory</text><path d="M699 1004 699 1137.29" stroke="#000000" stroke-width="13.75" stroke-miterlimit="8" fill="none" fill-rule="evenodd"/><text font-family="Oswald,Oswald_MSFontService,sans-serif" font-weight="400" font-size="83" transform="matrix(1 0 0 1 686.18 974)">checkpoin<tspan font-size="83" x="301.354" y="0">t</tspan></text><path d="M2102 1004 2102 1137.29" stroke="#000000" stroke-width="13.75" stroke-miterlimit="8" fill="none" fill-rule="evenodd"/><text font-family="Oswald,Oswald_MSFontService,sans-serif" font-weight="400" font-size="83" transform="matrix(1 0 0 1 2088.33 974)">checkpoin<tspan font-size="83" x="301.354" y="0">t</tspan><tspan fill="#F2C48D" font-size="83" x="825.863" y="49">cut</tspan><tspan fill="#F2C48D" font-size="83" x="939.874" y="49">off</tspan><tspan fill="#F2C48D" font-size="83" x="1040.71" y="49">overhan</tspan><tspan fill="#F2C48D" font-size="83" x="1276.18" y="49">g</tspan></text><rect x="424" y="1528" width="1676" height="56" fill="#57AAF2"/><rect x="2106" y="1528" width="1844" height="56" fill="#5ABFAD"/><text fill="#57AAF2" font-family="Oswald,Oswald_MSFontService,sans-serif" font-weight="400" font-size="83" transform="matrix(1 0 0 1 117.948 1584)">trajectory</text><path d="M699 1485 699 1618.29" stroke="#000000" stroke-width="13.75" stroke-miterlimit="8" fill="none" fill-rule="evenodd"/><text font-family="Oswald,Oswald_MSFontService,sans-serif" font-weight="400" font-size="83" transform="matrix(1 0 0 1 686.18 1454)">checkpoin<tspan font-size="83" x="301.354" y="0">t</tspan></text><path d="M2102 1485 2102 1618.29" stroke="#000000" stroke-width="13.75" stroke-miterlimit="8" fill="none" fill-rule="evenodd"/><text font-family="Oswald,Oswald_MSFontService,sans-serif" font-weight="400" font-size="83" transform="matrix(1 0 0 1 2088.33 1454)">checkpoin<tspan font-size="83" x="301.354" y="0">t</tspan><tspan fill="#5ABFAD" font-size="83" x="825.863" y="50">continue</tspan><tspan fill="#5ABFAD" font-size="83" x="1100.86" y="50">simulation</tspan></text></g></svg>