<svg width="4108" height="3247" xmlns="http://www.w3.org/2000/svg" xmlns:xlink="http://www.w3.org/1999/xlink" overflow="hidden"><defs><clipPath id="clip0"><rect x="321" y="-1252" width="4108" height="3247"/></clipPath><clipPath id="clip1"><rect x="392" y="-1218" width="493" height="491"/></clipPath><clipPath id="clip2"><rect x="392" y="-1218" width="493" height="491"/></clipPath><clipPath id="clip3"><rect x="392" y="-1218" width="493" height="491"/></clipPath></defs><g clip-path="url(#clip0)" transform="translate(-321 1252)"><rect x="321" y="-1252" width="4108" height="3247" fill="#F2F2F2"/><g clip-path="url(#clip1)"><g clip-path="url(#clip2)"><g clip-path="url(#clip3)"><path d="M568.777-1099.48 445.792-1099.48C439.379-1099.48 433.516-1103.11 430.649-1108.84L418.397-1133.34 430.649-1157.85C433.516-1163.58 439.378-1167.21 445.792-1167.21L568.778-1167.21C575.191-1167.21 581.054-1163.58 583.921-1157.85L596.172-1133.34 583.92-1108.84C581.053-1103.11 575.191-1099.48 568.777-1099.48Z" fill="#FFC36E"/><path d="M568.777-1099.48 445.792-1099.48C439.379-1099.48 433.516-1103.11 430.649-1108.84L418.397-1133.34 430.649-1157.85C433.516-1163.58 439.378-1167.21 445.792-1167.21L568.778-1167.21C575.191-1167.21 581.054-1163.58 583.921-1157.85L596.172-1133.34 583.92-1108.84C581.053-1103.11 575.191-1099.48 568.777-1099.48Z" fill="#FFC36E"/><path d="M858.603-1150.28 418.397-1150.28C413.722-1150.28 409.931-1146.48 409.931-1141.81L409.931-1099.48 867.069-1099.48 867.069-1141.81C867.069-1146.49 863.278-1150.28 858.603-1150.28Z" fill="#EFF2FA"/><path d="M409.931-1116.41 867.069-1116.41 867.069-1099.48 409.931-1099.48Z" fill="#E1E6F2"/><path d="M867.069-1133.34 601.405-1133.34C598.199-1133.34 595.267-1131.53 593.833-1128.67L583.921-1108.84C581.054-1103.11 575.19-1099.48 568.778-1099.48L445.792-1099.48C439.379-1099.48 433.516-1103.11 430.649-1108.84L420.736-1128.67C419.302-1131.53 416.37-1133.34 413.164-1133.34L409.931-1133.34C400.58-1133.34 393-1125.76 393-1116.41L393-794.724C393-785.373 400.58-777.794 409.931-777.794L867.069-777.794C876.42-777.794 884-785.373 884-794.724L884-1116.41C884-1125.76 876.42-1133.34 867.069-1133.34Z" fill="#FFD782"/><path d="M858.603-794.724 418.397-794.724C413.722-794.724 409.931-798.515 409.931-803.19L409.931-803.19C409.931-807.865 413.722-811.656 418.397-811.656L858.603-811.656C863.278-811.656 867.069-807.865 867.069-803.19L867.069-803.19C867.069-798.514 863.278-794.724 858.603-794.724Z" fill="#FFC36E"/><path d="M706.224-1006.36 833.208-1006.36C837.883-1006.36 841.673-1010.15 841.673-1014.83L841.673-1082.55C841.673-1087.23 837.883-1091.02 833.208-1091.02L706.224-1091.02C701.549-1091.02 697.759-1087.23 697.759-1082.55L697.759-1014.83C697.759-1010.15 701.549-1006.36 706.224-1006.36Z" fill="#EFF2FA"/><path d="M816.276-1057.16 723.155-1057.16C718.48-1057.16 714.689-1060.95 714.689-1065.62L714.689-1065.62C714.689-1070.3 718.48-1074.09 723.155-1074.09L816.276-1074.09C820.951-1074.09 824.742-1070.3 824.742-1065.62L824.742-1065.62C824.742-1060.95 820.951-1057.16 816.276-1057.16Z" fill="#C7CFE2"/><path d="M816.276-1023.29 723.155-1023.29C718.48-1023.29 714.689-1027.08 714.689-1031.76L714.689-1031.76C714.689-1036.43 718.48-1040.23 723.155-1040.23L816.276-1040.23C820.951-1040.23 824.742-1036.43 824.742-1031.76L824.742-1031.76C824.742-1027.08 820.951-1023.29 816.276-1023.29Z" fill="#D7DEED"/></g></g></g><path d="M548-630 748-630" stroke="#000000" stroke-width="13.75" stroke-miterlimit="8" fill="none" fill-rule="evenodd"/><text font-family="Oswald,Oswald_MSFontService,sans-serif" font-weight="400" font-size="83" transform="matrix(1 0 0 1 780.726 -600)">system_1</text><path d="M548-465 748-465" stroke="#000000" stroke-width="13.75" stroke-miterlimit="8" fill="none" fill-rule="evenodd"/><text font-family="Oswald,Oswald_MSFontService,sans-serif" font-weight="400" font-size="83" transform="matrix(1 0 0 1 780.726 -436)">system_2</text><path d="M548-184 748-184" stroke="#000000" stroke-width="13.75" stroke-miterlimit="8" fill="none" fill-rule="evenodd"/><text font-family="Oswald,Oswald_MSFontService,sans-serif" font-weight="400" font-size="83" transform="matrix(1 0 0 1 780.726 -154)">boxes</text><path d="M548 203 748 203.001" stroke="#000000" stroke-width="13.75" stroke-miterlimit="8" fill="none" fill-rule="evenodd"/><text font-family="Oswald,Oswald_MSFontService,sans-serif" font-weight="400" font-size="83" transform="matrix(1 0 0 1 780.726 233)">forcefield</text><path d="M548 624 748 624" stroke="#000000" stroke-width="13.75" stroke-miterlimit="8" fill="none" fill-rule="evenodd"/><text font-family="Oswald,Oswald_MSFontService,sans-serif" font-weight="400" font-size="83" transform="matrix(1 0 0 1 780.726 653)">hpc_submission</text><path d="M548 788 748 788" stroke="#000000" stroke-width="13.75" stroke-miterlimit="8" fill="none" fill-rule="evenodd"/><text font-family="Oswald,Oswald_MSFontService,sans-serif" font-weight="400" font-size="83" transform="matrix(1 0 0 1 780.726 818)">molecules</text><path d="M1295-630 1495-630" stroke="#000000" stroke-width="13.75" stroke-miterlimit="8" fill="none" fill-rule="evenodd"/><text font-family="Oswald,Oswald_MSFontService,sans-serif" font-weight="400" font-size="83" transform="matrix(1 0 0 1 1528.11 -600)">npt_equilibration</text><path d="M548 981 748 981" stroke="#000000" stroke-width="13.75" stroke-miterlimit="8" fill="none" fill-rule="evenodd"/><text font-family="Oswald,Oswald_MSFontService,sans-serif" font-weight="400" font-size="83" transform="matrix(1 0 0 1 780.726 1010)">results</text><rect x="867.5" y="-392.5" width="25.9998" height="26.0001" stroke="#000000" stroke-width="4.58333" stroke-miterlimit="8"/><rect x="867.5" y="-337.5" width="25.9998" height="26.0001" stroke="#000000" stroke-width="4.58333" stroke-miterlimit="8"/><rect x="867.5" y="-282.5" width="25.9998" height="26.0001" stroke="#000000" stroke-width="4.58333" stroke-miterlimit="8"/><text font-family="Oswald,Oswald_MSFontService,sans-serif" font-weight="400" font-size="83" transform="matrix(1 0 0 1 426.334 -1009)">project</text><path d="M548 1161 748 1161" stroke="#000000" stroke-width="13.75" stroke-miterlimit="8" fill="none" fill-rule="evenodd"/><text font-family="Oswald,Oswald_MSFontService,sans-serif" font-weight="400" font-size="83" transform="matrix(1 0 0 1 780.726 1190)">project_description.json</text><path d="M3177-635 3377-635" stroke="#000000" stroke-width="13.75" stroke-miterlimit="8" fill="none" fill-rule="evenodd"/><text font-family="Oswald,Oswald_MSFontService,sans-serif" font-weight="400" font-size="83" transform="matrix(1 0 0 1 3410.48 -605)">npt_equilibration.csv</text><path d="M1245-184 1445-184" stroke="#000000" stroke-width="13.75" stroke-miterlimit="8" fill="none" fill-rule="evenodd"/><text font-family="Oswald,Oswald_MSFontService,sans-serif" font-weight="400" font-size="83" transform="matrix(1 0 0 1 1478.17 -154)">box_1.pdb</text><path d="M1292-537 1492-537" stroke="#000000" stroke-width="13.75" stroke-miterlimit="8" fill="none" fill-rule="evenodd"/><text font-family="Oswald,Oswald_MSFontService,sans-serif" font-weight="400" font-size="83" transform="matrix(1 0 0 1 1525.03 -507)">replica_1</text><path d="M1095-630 1295-630" stroke="#000000" stroke-width="13.75" stroke-miterlimit="8" fill="none" fill-rule="evenodd"/><path d="M1295-635 1295-532.406" stroke="#000000" stroke-width="13.75" stroke-miterlimit="8" fill="none" fill-rule="evenodd"/><rect x="1622.5" y="-469.5" width="26.0001" height="26.0001" stroke="#000000" stroke-width="4.58333" stroke-miterlimit="8"/><rect x="1622.5" y="-414.5" width="26.0001" height="26.0001" stroke="#000000" stroke-width="4.58333" stroke-miterlimit="8"/><rect x="1622.5" y="-359.5" width="26.0001" height="26.0001" stroke="#000000" stroke-width="4.58333" stroke-miterlimit="8"/><path d="M992-184 1245.39-184" stroke="#000000" stroke-width="13.75" stroke-miterlimit="8" fill="none" fill-rule="evenodd"/><path d="M2983-635 3183-635" stroke="#000000" stroke-width="13.75" stroke-miterlimit="8" fill="none" fill-rule="evenodd"/><path d="M3183-639 3183-324.233" stroke="#000000" stroke-width="13.75" stroke-miterlimit="8" fill="none" fill-rule="evenodd"/><path d="M3177-323 3377-323" stroke="#000000" stroke-width="13.75" stroke-miterlimit="8" fill="none" fill-rule="evenodd"/><text font-family="Oswald,Oswald_MSFontService,sans-serif" font-weight="400" font-size="83" transform="matrix(1 0 0 1 3410.48 -293)">npt_equilibration.chk</text><path d="M3177-427 3377-427" stroke="#000000" stroke-width="13.75" stroke-miterlimit="8" fill="none" fill-rule="evenodd"/><text font-family="Oswald,Oswald_MSFontService,sans-serif" font-weight="400" font-size="83" transform="matrix(1 0 0 1 3410.48 -397)">npt_equilibration_state.xml</text><path d="M3177-531 3377-531" stroke="#000000" stroke-width="13.75" stroke-miterlimit="8" fill="none" fill-rule="evenodd"/><text font-family="Oswald,Oswald_MSFontService,sans-serif" font-weight="400" font-size="83" transform="matrix(1 0 0 1 3410.48 -501)">npt_equilibration_end.pdb</text><path d="M548-752 548 1166.77" stroke="#000000" stroke-width="13.75" stroke-miterlimit="8" fill="none" fill-rule="evenodd"/><path d="M0 0 926.574 4.62303" stroke="#000000" stroke-width="13.75" stroke-miterlimit="8" fill="none" fill-rule="evenodd" transform="matrix(1 0 0 -1 2071 -630.377)"/><path d="M2024-539 2224-539" stroke="#000000" stroke-width="13.75" stroke-miterlimit="8" fill="none" fill-rule="evenodd"/><text font-family="Oswald,Oswald_MSFontService,sans-serif" font-weight="400" font-size="83" transform="matrix(1 0 0 1 2257.39 -509)">nvt_equilibration.csv</text><path d="M1829-539 2029-539" stroke="#000000" stroke-width="13.75" stroke-miterlimit="8" fill="none" fill-rule="evenodd"/><path d="M0 0 3.08419 709.119" stroke="#000000" stroke-width="13.75" stroke-miterlimit="8" fill="none" fill-rule="evenodd" transform="matrix(-1 0 0 1 2027.08 -537)"/><path d="M2024-237 2224-236.999" stroke="#000000" stroke-width="13.75" stroke-miterlimit="8" fill="none" fill-rule="evenodd"/><text font-family="Oswald,Oswald_MSFontService,sans-serif" font-weight="400" font-size="83" transform="matrix(1 0 0 1 2257.39 -207)">nvt_equilibration.chk</text><path d="M2024-337 2224-337" stroke="#000000" stroke-width="13.75" stroke-miterlimit="8" fill="none" fill-rule="evenodd"/><text font-family="Oswald,Oswald_MSFontService,sans-serif" font-weight="400" font-size="83" transform="matrix(1 0 0 1 2257.39 -307)">nvt_equilibration_state.xml</text><path d="M2024-438 2224-438" stroke="#000000" stroke-width="13.75" stroke-miterlimit="8" fill="none" fill-rule="evenodd"/><text font-family="Oswald,Oswald_MSFontService,sans-serif" font-weight="400" font-size="83" transform="matrix(1 0 0 1 2257.39 -408)">nvt_equilibration_end.pdb</text><path d="M2024-136 2224-136" stroke="#000000" stroke-width="13.75" stroke-miterlimit="8" fill="none" fill-rule="evenodd"/><text font-family="Oswald,Oswald_MSFontService,sans-serif" font-weight="400" font-size="83" transform="matrix(1 0 0 1 2257.39 -106)">nve_equilibration.csv</text><path d="M2024 166 2224 166" stroke="#000000" stroke-width="13.75" stroke-miterlimit="8" fill="none" fill-rule="evenodd"/><text font-family="Oswald,Oswald_MSFontService,sans-serif" font-weight="400" font-size="83" transform="matrix(1 0 0 1 2257.39 196)">nve_equilibration.chk</text><path d="M2024 65 2224 65.0003" stroke="#000000" stroke-width="13.75" stroke-miterlimit="8" fill="none" fill-rule="evenodd"/><text font-family="Oswald,Oswald_MSFontService,sans-serif" font-weight="400" font-size="83" transform="matrix(1 0 0 1 2257.39 95)">nve_equilibration_state.xml</text><path d="M2024-35.0001 2224-34.9997" stroke="#000000" stroke-width="13.75" stroke-miterlimit="8" fill="none" fill-rule="evenodd"/><text font-family="Oswald,Oswald_MSFontService,sans-serif" font-weight="400" font-size="83" transform="matrix(1 0 0 1 2257.39 -6)">nve_equilibration_end.pdb</text><path d="M1178 205 1378 205" stroke="#000000" stroke-width="13.75" stroke-miterlimit="8" fill="none" fill-rule="evenodd"/><text font-family="Oswald,Oswald_MSFontService,sans-serif" font-weight="400" font-size="83" transform="matrix(1 0 0 1 1410.91 234)">force_field_1.xml</text><path d="M1097 203 1350.39 203.001" stroke="#000000" stroke-width="13.75" stroke-miterlimit="8" fill="none" fill-rule="evenodd"/><path d="M2172 790 2372 790" stroke="#000000" stroke-width="13.75" stroke-miterlimit="8" fill="none" fill-rule="evenodd"/><text font-family="Oswald,Oswald_MSFontService,sans-serif" font-weight="400" font-size="83" transform="matrix(1 0 0 1 2404.7 820)">molecule_1.pdb</text><path d="M1113 788 2118.53 788" stroke="#000000" stroke-width="13.75" stroke-miterlimit="8" fill="none" fill-rule="evenodd"/><path d="M1265 624 2917.16 624" stroke="#000000" stroke-width="13.75" stroke-miterlimit="8" fill="none" fill-rule="evenodd"/><path d="M1065-185 1265-185" stroke="#000000" stroke-width="13.75" stroke-miterlimit="8" fill="none" fill-rule="evenodd"/><path d="M1253-190 1253-87.4067" stroke="#000000" stroke-width="13.75" stroke-miterlimit="8" fill="none" fill-rule="evenodd"/><path d="M1245-89 1445-88.9997" stroke="#000000" stroke-width="13.75" stroke-miterlimit="8" fill="none" fill-rule="evenodd"/><text font-family="Oswald,Oswald_MSFontService,sans-serif" font-weight="400" font-size="83" transform="matrix(1 0 0 1 1478.17 -59)">box_2.pdb</text><rect x="1622.5" y="-25.4999" width="26.0001" height="25.9998" stroke="#000000" stroke-width="4.58333" stroke-miterlimit="8"/><rect x="1622.5" y="29.5001" width="26.0001" height="25.9998" stroke="#000000" stroke-width="4.58333" stroke-miterlimit="8"/><rect x="1622.5" y="84.5001" width="26.0001" height="25.9998" stroke="#000000" stroke-width="4.58333" stroke-miterlimit="8"/><path d="M1095 203 1295 203.001" stroke="#000000" stroke-width="13.75" stroke-miterlimit="8" fill="none" fill-rule="evenodd"/><path d="M1184 198 1184 300.593" stroke="#000000" stroke-width="13.75" stroke-miterlimit="8" fill="none" fill-rule="evenodd"/><path d="M1178 297 1378 297" stroke="#000000" stroke-width="13.75" stroke-miterlimit="8" fill="none" fill-rule="evenodd"/><text font-family="Oswald,Oswald_MSFontService,sans-serif" font-weight="400" font-size="83" transform="matrix(1 0 0 1 1410.91 326)">force_field_2.xml</text><rect x="1616.5" y="345.5" width="25.9998" height="26.0001" stroke="#000000" stroke-width="4.58333" stroke-miterlimit="8"/><rect x="1616.5" y="400.5" width="25.9998" height="26.0001" stroke="#000000" stroke-width="4.58333" stroke-miterlimit="8"/><rect x="1616.5" y="455.5" width="25.9998" height="26.0001" stroke="#000000" stroke-width="4.58333" stroke-miterlimit="8"/><path d="M3069 624 3269 624" stroke="#000000" stroke-width="13.75" stroke-miterlimit="8" fill="none" fill-rule="evenodd"/><text font-family="Oswald,Oswald_MSFontService,sans-serif" font-weight="400" font-size="83" transform="matrix(1 0 0 1 3302.13 654)">submit_adjust_to_correct_density.sh</text><path d="M2877 624 3077 624" stroke="#000000" stroke-width="13.75" stroke-miterlimit="8" fill="none" fill-rule="evenodd"/><path d="M0 0 4.92943 1106.52" stroke="#000000" stroke-width="13.75" stroke-miterlimit="8" fill="none" fill-rule="evenodd" transform="matrix(-1 0 0 1 3073.93 630)"/><path d="M3069 926 3269 926" stroke="#000000" stroke-width="13.75" stroke-miterlimit="8" fill="none" fill-rule="evenodd"/><text font-family="Oswald,Oswald_MSFontService,sans-serif" font-weight="400" font-size="83" transform="matrix(1 0 0 1 3302.13 956)">submit_msd_analysis</text><path d="M3069 825 3269 825" stroke="#000000" stroke-width="13.75" stroke-miterlimit="8" fill="none" fill-rule="evenodd"/><text font-family="Oswald,Oswald_MSFontService,sans-serif" font-weight="400" font-size="83" transform="matrix(1 0 0 1 3302.13 855)">submit_density_analysis</text><path d="M3069 725 3269 725" stroke="#000000" stroke-width="13.75" stroke-miterlimit="8" fill="none" fill-rule="evenodd"/><text font-family="Oswald,Oswald_MSFontService,sans-serif" font-weight="400" font-size="83" transform="matrix(1 0 0 1 3302.13 754)">submit_simulate.sh</text><path d="M3069 1026 3269 1026" stroke="#000000" stroke-width="13.75" stroke-miterlimit="8" fill="none" fill-rule="evenodd"/><text font-family="Oswald,Oswald_MSFontService,sans-serif" font-weight="400" font-size="83" transform="matrix(1 0 0 1 3302.13 1056)">submit_hbonds_analysis</text><path d="M3069 1630 3269 1630" stroke="#000000" stroke-width="13.75" stroke-miterlimit="8" fill="none" fill-rule="evenodd"/><text font-family="Oswald,Oswald_MSFontService,sans-serif" font-weight="400" font-size="83" transform="matrix(1 0 0 1 3302.13 1659)">chunk_1.sh</text><path d="M3069 1227 3269 1227" stroke="#000000" stroke-width="13.75" stroke-miterlimit="8" fill="none" fill-rule="evenodd"/><text font-family="Oswald,Oswald_MSFontService,sans-serif" font-weight="400" font-size="83" transform="matrix(1 0 0 1 3302.13 1257)">conclude_hbonds.sh</text><path d="M3069 1127 3269 1127" stroke="#000000" stroke-width="13.75" stroke-miterlimit="8" fill="none" fill-rule="evenodd"/><text font-family="Oswald,Oswald_MSFontService,sans-serif" font-weight="400" font-size="83" transform="matrix(1 0 0 1 3302.13 1157)">conclude_msd.sh</text><path d="M3069 1730 3269 1730" stroke="#000000" stroke-width="13.75" stroke-miterlimit="8" fill="none" fill-rule="evenodd"/><text font-family="Oswald,Oswald_MSFontService,sans-serif" font-weight="400" font-size="83" transform="matrix(1 0 0 1 3302.13 1760)">chunk_2.sh</text><rect x="3421.5" y="1787.5" width="26.0002" height="26.0001" stroke="#000000" stroke-width="4.58333" stroke-miterlimit="8"/><rect x="3421.5" y="1842.5" width="26.0002" height="26.0001" stroke="#000000" stroke-width="4.58333" stroke-miterlimit="8"/><rect x="3421.5" y="1897.5" width="26.0002" height="26.0001" stroke="#000000" stroke-width="4.58333" stroke-miterlimit="8"/><path d="M2090 789 2343.39 789" stroke="#000000" stroke-width="13.75" stroke-miterlimit="8" fill="none" fill-rule="evenodd"/><path d="M2088 789 2288 789" stroke="#000000" stroke-width="13.75" stroke-miterlimit="8" fill="none" fill-rule="evenodd"/><path d="M2177 784 2177 886.594" stroke="#000000" stroke-width="13.75" stroke-miterlimit="8" fill="none" fill-rule="evenodd"/><path d="M2170 883 2370 883" stroke="#000000" stroke-width="13.75" stroke-miterlimit="8" fill="none" fill-rule="evenodd"/><text font-family="Oswald,Oswald_MSFontService,sans-serif" font-weight="400" font-size="83" transform="matrix(1 0 0 1 2403.41 913)">molecule<tspan font-size="83" x="287.604" y="0">_2.xml</tspan></text><rect x="2608.5" y="931.5" width="26.0002" height="25.9998" stroke="#000000" stroke-width="4.58333" stroke-miterlimit="8"/><rect x="2608.5" y="986.5" width="26.0002" height="25.9998" stroke="#000000" stroke-width="4.58333" stroke-miterlimit="8"/><rect x="2608.5" y="1041.5" width="26.0002" height="25.9998" stroke="#000000" stroke-width="4.58333" stroke-miterlimit="8"/><path d="M1680 982 1880 982" stroke="#000000" stroke-width="13.75" stroke-miterlimit="8" fill="none" fill-rule="evenodd"/><text font-family="Oswald,Oswald_MSFontService,sans-serif" font-weight="400" font-size="83" transform="matrix(1 0 0 1 1913.05 1012)">parts</text><path d="M1485 982 1685 982" stroke="#000000" stroke-width="13.75" stroke-miterlimit="8" fill="none" fill-rule="evenodd"/><path d="M1685 988 1685 1391.06" stroke="#000000" stroke-width="13.75" stroke-miterlimit="8" fill="none" fill-rule="evenodd"/><path d="M1680 1284 1880 1284" stroke="#000000" stroke-width="13.75" stroke-miterlimit="8" fill="none" fill-rule="evenodd"/><text font-family="Oswald,Oswald_MSFontService,sans-serif" font-weight="400" font-size="83" transform="matrix(1 0 0 1 1913.05 1314)">self_diffusion_coefficients.json</text><path d="M1680 1184 1880 1184" stroke="#000000" stroke-width="13.75" stroke-miterlimit="8" fill="none" fill-rule="evenodd"/><text font-family="Oswald,Oswald_MSFontService,sans-serif" font-weight="400" font-size="83" transform="matrix(1 0 0 1 1913.05 1214)">density.json</text><path d="M1680 1083 1880 1083" stroke="#000000" stroke-width="13.75" stroke-miterlimit="8" fill="none" fill-rule="evenodd"/><text font-family="Oswald,Oswald_MSFontService,sans-serif" font-weight="400" font-size="83" transform="matrix(1 0 0 1 1913.05 1113)">raw_data</text><path d="M1680 1385 1880 1385" stroke="#000000" stroke-width="13.75" stroke-miterlimit="8" fill="none" fill-rule="evenodd"/><text font-family="Oswald,Oswald_MSFontService,sans-serif" font-weight="400" font-size="83" transform="matrix(1 0 0 1 1913.05 1415)">hbonds.json</text><path d="M1017 983 1776.53 983" stroke="#000000" stroke-width="13.75" stroke-miterlimit="8" fill="none" fill-rule="evenodd"/><path d="M3069 1328 3269 1328" stroke="#000000" stroke-width="13.75" stroke-miterlimit="8" fill="none" fill-rule="evenodd"/><text font-family="Oswald,Oswald_MSFontService,sans-serif" font-weight="400" font-size="83" transform="matrix(1 0 0 1 3302.13 1358)">job_checker.sh</text><path d="M3069 1428 3269 1428" stroke="#000000" stroke-width="13.75" stroke-miterlimit="8" fill="none" fill-rule="evenodd"/><text font-family="Oswald,Oswald_MSFontService,sans-serif" font-weight="400" font-size="83" transform="matrix(1 0 0 1 3302.13 1458)">job_checker_list.txt</text><path d="M3069 1529 3269 1529" stroke="#000000" stroke-width="13.75" stroke-miterlimit="8" fill="none" fill-rule="evenodd"/><text font-family="Oswald,Oswald_MSFontService,sans-serif" font-weight="400" font-size="83" transform="matrix(1 0 0 1 3302.13 1559)">job_checks.txt</text></g></svg>