<svg width="2911" height="1884" xmlns="http://www.w3.org/2000/svg" xmlns:xlink="http://www.w3.org/1999/xlink" overflow="hidden"><defs><clipPath id="clip0"><rect x="474" y="284" width="2911" height="1884"/></clipPath></defs><g clip-path="url(#clip0)" transform="translate(-474 -284)"><rect x="474" y="312" width="2911" height="1786" fill="#F2F2F2"/><path d="M814 523 814 1993.3" stroke="#000000" stroke-width="10.3125" stroke-miterlimit="8" fill="none" fill-rule="evenodd"/><path d="M3048.12 1993.54 810 1993" stroke="#000000" stroke-width="10.3125" stroke-miterlimit="8" fill="none" fill-rule="evenodd"/><text font-family="Oswald,Oswald_MSFontService,sans-serif" font-weight="700" font-size="147" transform="matrix(1 0 0 1 3085.77 2045)">1/L</text><path d="M1256 967C1256 952.64 1267.64 941 1282 941 1296.36 941 1308 952.64 1308 967 1308 981.359 1296.36 993 1282 993 1267.64 993 1256 981.359 1256 967Z" stroke="#F25749" stroke-width="10.3125" stroke-miterlimit="8" fill="none" fill-rule="evenodd"/><path d="M2837 1724C2837 1709.64 2848.64 1698 2863 1698 2877.36 1698 2889 1709.64 2889 1724 2889 1738.36 2877.36 1750 2863 1750 2848.64 1750 2837 1738.36 2837 1724Z" stroke="#F25749" stroke-width="10.3125" stroke-miterlimit="8" fill="none" fill-rule="evenodd"/><path d="M2837 1279C2837 1264.64 2848.64 1253 2863 1253 2877.36 1253 2889 1264.64 2889 1279 2889 1293.36 2877.36 1305 2863 1305 2848.64 1305 2837 1293.36 2837 1279Z" stroke="#F25749" stroke-width="10.3125" stroke-miterlimit="8" fill="none" fill-rule="evenodd"/><path d="M2837 1438C2837 1423.64 2848.64 1412 2863 1412 2877.36 1412 2889 1423.64 2889 1438 2889 1452.36 2877.36 1464 2863 1464 2848.64 1464 2837 1452.36 2837 1438Z" stroke="#F25749" stroke-width="10.3125" stroke-miterlimit="8" fill="none" fill-rule="evenodd"/><path d="M2837 1481C2837 1466.64 2848.64 1455 2863 1455 2877.36 1455 2889 1466.64 2889 1481 2889 1495.36 2877.36 1507 2863 1507 2848.64 1507 2837 1495.36 2837 1481Z" stroke="#F25749" stroke-width="10.3125" stroke-miterlimit="8" fill="none" fill-rule="evenodd"/><path d="M814 970 3048.85 1541.94" stroke="#4472C4" stroke-width="13.75" stroke-miterlimit="8" fill="none" fill-rule="evenodd"/><text fill="#F25749" font-family="Oswald,Oswald_MSFontService,sans-serif" font-weight="700" font-size="147" transform="matrix(1 0 0 1 769.854 470)">D</text><path d="M1256 1182C1256 1167.64 1267.64 1156 1282 1156 1296.36 1156 1308 1167.64 1308 1182 1308 1196.36 1296.36 1208 1282 1208 1267.64 1208 1256 1196.36 1256 1182Z" stroke="#F25749" stroke-width="10.3125" stroke-miterlimit="8" fill="none" fill-rule="evenodd"/><path d="M1256 1041C1256 1026.64 1267.64 1015 1282 1015 1296.36 1015 1308 1026.64 1308 1041 1308 1055.36 1296.36 1067 1282 1067 1267.64 1067 1256 1055.36 1256 1041Z" stroke="#F25749" stroke-width="10.3125" stroke-miterlimit="8" fill="none" fill-rule="evenodd"/><path d="M1256 1080C1256 1065.64 1267.64 1054 1282 1054 1296.36 1054 1308 1065.64 1308 1080 1308 1094.36 1296.36 1106 1282 1106 1267.64 1106 1256 1094.36 1256 1080Z" stroke="#F25749" stroke-width="10.3125" stroke-miterlimit="8" fill="none" fill-rule="evenodd"/><path d="M1256 1118C1256 1103.64 1267.64 1092 1282 1092 1296.36 1092 1308 1103.64 1308 1118 1308 1132.36 1296.36 1144 1282 1144 1267.64 1144 1256 1132.36 1256 1118Z" stroke="#F25749" stroke-width="10.3125" stroke-miterlimit="8" fill="none" fill-rule="evenodd"/><path d="M2837 1563C2837 1548.64 2848.64 1537 2863 1537 2877.36 1537 2889 1548.64 2889 1563 2889 1577.36 2877.36 1589 2863 1589 2848.64 1589 2837 1577.36 2837 1563Z" stroke="#F25749" stroke-width="10.3125" stroke-miterlimit="8" fill="none" fill-rule="evenodd"/><path d="M2059 1142C2059 1127.64 2070.64 1116 2085 1116 2099.36 1116 2111 1127.64 2111 1142 2111 1156.36 2099.36 1168 2085 1168 2070.64 1168 2059 1156.36 2059 1142Z" stroke="#F25749" stroke-width="10.3125" stroke-miterlimit="8" fill="none" fill-rule="evenodd"/><path d="M2059 1177C2059 1162.64 2070.64 1151 2085 1151 2099.36 1151 2111 1162.64 2111 1177 2111 1191.36 2099.36 1203 2085 1203 2070.64 1203 2059 1191.36 2059 1177Z" stroke="#F25749" stroke-width="10.3125" stroke-miterlimit="8" fill="none" fill-rule="evenodd"/><path d="M2059 1275C2059 1260.64 2070.64 1249 2085 1249 2099.36 1249 2111 1260.64 2111 1275 2111 1289.36 2099.36 1301 2085 1301 2070.64 1301 2059 1289.36 2059 1275Z" stroke="#F25749" stroke-width="10.3125" stroke-miterlimit="8" fill="none" fill-rule="evenodd"/><path d="M2059 1310C2059 1295.64 2070.64 1284 2085 1284 2099.36 1284 2111 1295.64 2111 1310 2111 1324.36 2099.36 1336 2085 1336 2070.64 1336 2059 1324.36 2059 1310Z" stroke="#F25749" stroke-width="10.3125" stroke-miterlimit="8" fill="none" fill-rule="evenodd"/><path d="M2059 1417C2059 1402.64 2070.64 1391 2085 1391 2099.36 1391 2111 1402.64 2111 1417 2111 1431.36 2099.36 1443 2085 1443 2070.64 1443 2059 1431.36 2059 1417Z" stroke="#F25749" stroke-width="10.3125" stroke-miterlimit="8" fill="none" fill-rule="evenodd"/><text fill="#5ABFAD" font-family="Oswald,Oswald_MSFontService,sans-serif" font-weight="700" font-size="147" transform="matrix(1 0 0 1 587.68 1014)">D<tspan font-size="98" x="85.9375" y="36">∞</tspan></text><path d="M778.455 954.344 795.502 937.132 814 955.452 832.498 937.132 849.545 954.344 831.213 972.5 849.545 990.656 832.498 1007.87 814 989.548 795.502 1007.87 778.455 990.656 796.787 972.5Z" fill="#5ABFAD" fill-rule="evenodd"/><path d="M1474.5 1144.5 1477.77 1281.34" stroke="#000000" stroke-width="6.875" stroke-miterlimit="8" fill="none" fill-rule="evenodd"/><path d="M0 0 537.475 0.000360892" stroke="#000000" stroke-width="6.875" stroke-miterlimit="8" fill="none" fill-rule="evenodd" transform="matrix(-1 0 0 1 2011.98 1281.5)"/><text font-family="Oswald,Oswald_MSFontService,sans-serif" font-weight="700" font-size="147" transform="matrix(1 0 0 1 1690.35 1394)">a</text></g></svg>