<svg width="4901" height="2225" xmlns="http://www.w3.org/2000/svg" xmlns:xlink="http://www.w3.org/1999/xlink" overflow="hidden"><defs><clipPath id="clip0"><rect x="-85" y="118" width="4901" height="2225"/></clipPath></defs><g clip-path="url(#clip0)" transform="translate(85 -118)"><rect x="-84.9999" y="118" width="4895" height="2225" fill="#F2F2F2"/><path d="M33.4998 1022.19 4689.74 1022.19 4689.74 1042.81 33.4998 1042.81ZM4679.42 980.938 4741.3 1032.5 4679.42 1084.06Z"/><path d="M282 854.335C282 803.892 322.892 763 373.334 763L1416.67 763C1467.11 763 1508 803.892 1508 854.335L1508 1219.67C1508 1270.11 1467.11 1311 1416.67 1311L373.334 1311C322.892 1311 282 1270.11 282 1219.67Z" fill="#F25749" fill-rule="evenodd"/><text fill="#F2F2F2" font-family="Oswald,Oswald_MSFontService,sans-serif" font-weight="700" font-size="275" transform="matrix(1 0 0 1 687.188 1039)">NpT<tspan font-size="110" x="-224.308" y="170">simulation</tspan><tspan font-size="110" x="277.567" y="170">settings</tspan></text><path d="M1905 854.335C1905 803.892 1945.89 763 1996.33 763L3039.67 763C3090.11 763 3131 803.892 3131 854.335L3131 1219.67C3131 1270.11 3090.11 1311 3039.67 1311L1996.33 1311C1945.89 1311 1905 1270.11 1905 1219.67Z" fill="#57AAF2" fill-rule="evenodd"/><text fill="#F2F2F2" font-family="Oswald,Oswald_MSFontService,sans-serif" font-weight="700" font-size="275" transform="matrix(1 0 0 1 2307.58 1039)">NVT<tspan font-size="110" x="-221.444" y="170">simulation</tspan><tspan font-size="110" x="280.431" y="170">settings</tspan></text><path d="M3352 854.335C3352 803.892 3392.89 763 3443.33 763L4486.67 763C4537.11 763 4578 803.892 4578 854.335L4578 1219.67C4578 1270.11 4537.11 1311 4486.67 1311L3443.33 1311C3392.89 1311 3352 1270.11 3352 1219.67Z" fill="#F2C48D" fill-rule="evenodd"/><text fill="#F2F2F2" font-family="Oswald,Oswald_MSFontService,sans-serif" font-weight="700" font-size="275" transform="matrix(1 0 0 1 3754.44 1039)">NVE<tspan font-size="110" x="-221.146" y="170">simulation</tspan><tspan font-size="110" x="280.729" y="170">settings</tspan></text><path d="M-16.0002 1032.5C-16.0002 978.652 27.6521 935 81.5 935 135.348 935 179 978.652 179 1032.5 179 1086.35 135.348 1130 81.5 1130 27.6521 1130-16.0002 1086.35-16.0002 1032.5Z" fill="#5ABFAD" fill-rule="evenodd"/><path d="M1603 1032.5C1603 978.652 1646.65 935 1700.5 935 1754.35 935 1798 978.652 1798 1032.5 1798 1086.35 1754.35 1130 1700.5 1130 1646.65 1130 1603 1086.35 1603 1032.5Z" fill="#5ABFAD" fill-rule="evenodd"/><path d="M0 0 0.000360892 537.094" stroke="#000000" stroke-width="6.875" stroke-miterlimit="8" fill="none" fill-rule="evenodd" transform="matrix(1 0 0 -1 82.5 935.594)"/><path d="M79.4999 401.5 279.316 401.5" stroke="#000000" stroke-width="6.875" stroke-miterlimit="8" fill="none" fill-rule="evenodd"/><rect x="119" y="321" width="672" height="177" fill="#5ABFAD"/><text fill="#F2F2F2" font-family="Oswald,Oswald_MSFontService,sans-serif" font-weight="700" font-size="110" transform="matrix(1 0 0 1 173.604 449)">slow <tspan font-size="110" x="224.01" y="0">heating</tspan></text><path d="M0 0 0.000360892 537.094" stroke="#000000" stroke-width="6.875" stroke-miterlimit="8" fill="none" fill-rule="evenodd" transform="matrix(1 0 0 -1 1703.5 935.594)"/><path d="M1700.5 401.5 1900.32 401.5" stroke="#000000" stroke-width="6.875" stroke-miterlimit="8" fill="none" fill-rule="evenodd"/><rect x="1740" y="321" width="2325" height="177" fill="#5ABFAD"/><text fill="#F2F2F2" font-family="Oswald,Oswald_MSFontService,sans-serif" font-weight="700" font-size="110" transform="matrix(1 0 0 1 1787.96 449)">box <tspan font-size="110" x="185.625" y="0">rescaling</tspan><tspan font-size="110" x="599.844" y="0">, </tspan><tspan font-size="110" x="654.271" y="0">assign</tspan><tspan font-size="110" x="967.083" y="0">velocities</tspan><tspan font-size="110" x="1423.7" y="0">from </tspan>temperature</text><path d="M358.5 1311.5 358.5 1913.32" stroke="#000000" stroke-width="6.875" stroke-miterlimit="8" fill="none" fill-rule="evenodd"/><rect x="423" y="1369" width="691" height="541" fill="#7F7F7F"/><text fill="#FFFFFF" font-family="Oswald,Oswald_MSFontService,sans-serif" font-weight="700" font-size="110" transform="matrix(1 0 0 1 447.349 1469)">energy<tspan font-size="110" x="0" y="132">temperature</tspan><tspan font-size="110" x="0" y="264">box </tspan><tspan font-size="110" x="185.625" y="264">volume</tspan><tspan font-size="110" x="0" y="396">density</tspan></text><rect x="2069" y="1369" width="691" height="541" fill="#7F7F7F"/><text fill="#FFFFFF" font-family="Oswald,Oswald_MSFontService,sans-serif" font-weight="700" font-size="110" transform="matrix(1 0 0 1 2092.7 1469)">energy<tspan font-size="110" x="0" y="132">temperature</tspan><tspan font-size="110" x="0" y="264">box </tspan><tspan font-size="110" x="185.625" y="264">volume</tspan><tspan font-size="110" x="0" y="396">density</tspan></text><path d="M3458.5 1310.5 3458.5 2178.9" stroke="#000000" stroke-width="6.875" stroke-miterlimit="8" fill="none" fill-rule="evenodd"/><rect x="3524" y="1369" width="1164" height="811" fill="#7F7F7F"/><text fill="#FFFFFF" font-family="Oswald,Oswald_MSFontService,sans-serif" font-weight="700" font-size="110" transform="matrix(1 0 0 1 3547.88 1468)">energy<tspan font-size="110" x="0" y="132">temperature</tspan><tspan font-size="110" x="0" y="264">box </tspan><tspan font-size="110" x="185.625" y="264">volume</tspan><tspan font-size="110" x="0" y="396">density</tspan><tspan font-size="110" x="0" y="528">wrapped</tspan><tspan font-size="110" x="406.771" y="528">coordiates</tspan><tspan font-size="110" x="0" y="660">unwrapped</tspan><tspan font-size="110" x="517.917" y="660">coordinates</tspan></text><path d="M0.0728855-3.43673 73.3308-1.88309 73.185 4.99037-0.0728855 3.43673ZM73.7438-21.3579C86.3975-21.0895 96.4378-10.6141 96.1694 2.03955 95.9011 14.6932 85.4257 24.7335 72.772 24.4652 60.1183 24.1968 50.078 13.7214 50.3464 1.06774 50.6147-11.5859 61.0901-21.6262 73.7438-21.3579Z" transform="matrix(1 0 0 -1 358.5 1913.05)"/><path d="M2005.5 1309.5 2005.5 1911.32" stroke="#000000" stroke-width="6.875" stroke-miterlimit="8" fill="none" fill-rule="evenodd"/><path d="M0.0728855-3.43673 73.3308-1.88309 73.185 4.99037-0.0728855 3.43673ZM73.7438-21.3579C86.3975-21.0895 96.4378-10.6141 96.1694 2.03955 95.9011 14.6932 85.4257 24.7335 72.772 24.4652 60.1183 24.1968 50.078 13.7214 50.3464 1.06774 50.6147-11.5859 61.0901-21.6262 73.7438-21.3579Z" transform="matrix(1 0 0 -1 2005.5 1912.05)"/><path d="M0.0728855-3.43673 73.3308-1.88309 73.185 4.99037-0.0728855 3.43673ZM73.7438-21.3579C86.3975-21.0895 96.4378-10.6141 96.1694 2.03955 95.9011 14.6932 85.4257 24.7335 72.772 24.4652 60.1183 24.1968 50.078 13.7214 50.3464 1.06774 50.6147-11.5859 61.0901-21.6262 73.7438-21.3579Z" transform="matrix(1 0 0 -1 3457.5 2181.05)"/></g></svg>